<svg xmlns="http://www.w3.org/2000/svg" viewBox="0 0 120 120" fill="none">
  <!-- Flames background -->
  <path d="M60 10 Q55 25 50 20 Q45 30 40 25 Q35 40 30 35 Q25 50 35 55" stroke="#f59e0b" stroke-width="1.5" fill="none" opacity="0.4" stroke-linecap="round"/>
  <path d="M60 10 Q65 25 70 20 Q75 30 80 25 Q85 40 90 35 Q95 50 85 55" stroke="#f59e0b" stroke-width="1.5" fill="none" opacity="0.4" stroke-linecap="round"/>
  <path d="M45 15 Q42 28 38 24 Q34 35 30 32" stroke="#ef4444" stroke-width="1" fill="none" opacity="0.3" stroke-linecap="round"/>
  <path d="M75 15 Q78 28 82 24 Q86 35 90 32" stroke="#ef4444" stroke-width="1" fill="none" opacity="0.3" stroke-linecap="round"/>
  <!-- Stickman standing powerful -->
  <!-- Head -->
  <circle cx="60" cy="42" r="8" stroke="#fff" stroke-width="2"/>
  <!-- Determined expression -->
  <circle cx="57" cy="42" r="1.2" fill="#fff"/>
  <circle cx="63" cy="42" r="1.2" fill="#fff"/>
  <path d="M57 45 L63 45" stroke="#fff" stroke-width="1" stroke-linecap="round"/>
  <!-- Body -->
  <path d="M60 50 L60 72" stroke="#fff" stroke-width="2" stroke-linecap="round"/>
  <!-- Legs power stance -->
  <path d="M60 72 L48 92 M60 72 L72 92" stroke="#fff" stroke-width="2" stroke-linecap="round"/>
  <!-- Arms raised triumphantly -->
  <path d="M60 56 L42 42 M60 56 L78 42" stroke="#fff" stroke-width="2" stroke-linecap="round"/>
  <!-- Fists -->
  <circle cx="42" cy="42" r="3" stroke="#fff" stroke-width="1.5" fill="none"/>
  <circle cx="78" cy="42" r="3" stroke="#fff" stroke-width="1.5" fill="none"/>
  <!-- Energy burst -->
  <path d="M35 55 L28 52" stroke="#f59e0b" stroke-width="1.5" stroke-linecap="round" opacity="0.6"/>
  <path d="M85 55 L92 52" stroke="#f59e0b" stroke-width="1.5" stroke-linecap="round" opacity="0.6"/>
  <path d="M60 28 L60 20" stroke="#f59e0b" stroke-width="1.5" stroke-linecap="round" opacity="0.6"/>
</svg>
