<svg xmlns="http://www.w3.org/2000/svg" viewBox="0 0 120 120" fill="none">
  <!-- Chaos swirls around head -->
  <path d="M35 25 Q30 20 35 15 Q40 10 38 18" stroke="#ef4444" stroke-width="1" fill="none" opacity="0.4" stroke-linecap="round"/>
  <path d="M85 25 Q90 20 85 15 Q80 10 82 18" stroke="#ef4444" stroke-width="1" fill="none" opacity="0.4" stroke-linecap="round"/>
  <path d="M40 18 Q35 12 42 10" stroke="#ef4444" stroke-width="1" fill="none" opacity="0.3" stroke-linecap="round"/>
  <path d="M80 18 Q85 12 78 10" stroke="#ef4444" stroke-width="1" fill="none" opacity="0.3" stroke-linecap="round"/>
  <!-- Spiral confusion above head -->
  <path d="M55 15 Q50 10 55 5 Q60 0 65 5 Q70 10 65 15 Q60 20 55 15" stroke="#666" stroke-width="1" fill="none" opacity="0.4"/>
  <!-- Desk -->
  <rect x="25" y="65" width="70" height="4" rx="2" stroke="#444" stroke-width="2" fill="none"/>
  <path d="M30 69 L30 95 M90 69 L90 95" stroke="#444" stroke-width="2" stroke-linecap="round"/>
  <!-- Papers scattered -->
  <rect x="30" y="55" width="15" height="10" rx="1" stroke="#555" stroke-width="1" fill="none" transform="rotate(-10 37 60)"/>
  <rect x="75" y="52" width="15" height="10" rx="1" stroke="#555" stroke-width="1" fill="none" transform="rotate(8 82 57)"/>
  <!-- Stickman overwhelmed at desk -->
  <!-- Head -->
  <circle cx="60" cy="38" r="8" stroke="#fff" stroke-width="2"/>
  <!-- Worried eyes -->
  <path d="M56 36 Q57 38 58 36" stroke="#fff" stroke-width="1" fill="none" stroke-linecap="round"/>
  <path d="M62 36 Q63 38 64 36" stroke="#fff" stroke-width="1" fill="none" stroke-linecap="round"/>
  <!-- Body slumped -->
  <path d="M60 46 L58 65" stroke="#fff" stroke-width="2" stroke-linecap="round"/>
  <!-- Legs -->
  <path d="M58 65 L50 85 M58 65 L68 85" stroke="#fff" stroke-width="2" stroke-linecap="round"/>
  <!-- Arms holding head -->
  <path d="M59 52 L50 40 M59 52 L70 40" stroke="#fff" stroke-width="2" stroke-linecap="round"/>
  <!-- Hands on face -->
  <circle cx="50" cy="38" r="2.5" stroke="#fff" stroke-width="1.5" fill="none"/>
  <circle cx="70" cy="38" r="2.5" stroke="#fff" stroke-width="1.5" fill="none"/>
</svg>
