<svg xmlns="http://www.w3.org/2000/svg" viewBox="0 0 120 120" fill="none">
  <!-- Chair -->
  <path d="M30 70 L30 95 M90 70 L90 95" stroke="#444" stroke-width="2" stroke-linecap="round"/>
  <path d="M25 70 L95 70" stroke="#444" stroke-width="2" stroke-linecap="round"/>
  <!-- Stickman sitting relaxed -->
  <!-- Head -->
  <circle cx="60" cy="42" r="8" stroke="#fff" stroke-width="2"/>
  <!-- Body -->
  <path d="M60 50 L60 70" stroke="#fff" stroke-width="2" stroke-linecap="round"/>
  <!-- Legs sitting -->
  <path d="M60 70 L45 85 M60 70 L75 85" stroke="#fff" stroke-width="2" stroke-linecap="round"/>
  <!-- Arms relaxed -->
  <path d="M60 58 L40 65 M60 58 L80 55" stroke="#fff" stroke-width="2" stroke-linecap="round"/>
  <!-- Coffee cup -->
  <rect x="78" y="50" width="10" height="12" rx="2" stroke="#f59e0b" stroke-width="1.5" fill="none"/>
  <path d="M88 53 Q93 53 93 58 Q93 63 88 63" stroke="#f59e0b" stroke-width="1.5" fill="none"/>
  <!-- Steam -->
  <path d="M82 47 Q84 43 82 39" stroke="#666" stroke-width="1" fill="none" stroke-linecap="round"/>
  <path d="M86 47 Q88 42 86 38" stroke="#666" stroke-width="1" fill="none" stroke-linecap="round"/>
</svg>
